<svg width="140" height="15" viewBox="0 0 140 15" fill="none" xmlns="http://www.w3.org/2000/svg">
<path d="M4.346 1.31H0.314V14H4.346C7.424 14 10.7 13.118 10.7 7.646C10.7 2.192 7.424 1.31 4.346 1.31ZM4.346 12.74H1.79V2.57H4.346C6.596 2.57 9.224 2.966 9.224 7.646C9.224 12.344 6.596 12.74 4.346 12.74ZM12.4642 9.41C12.4642 11.984 13.8142 14.18 17.0182 14.18C19.8622 14.18 20.9422 12.254 21.2842 10.868H19.8082C19.4842 12.236 18.4942 12.956 17.0182 12.956C14.8042 12.956 13.9942 11.498 13.9042 9.806H20.9782V9.23C20.9782 6.476 19.3222 4.874 16.8022 4.874C14.2642 4.874 12.4642 6.53 12.4642 9.41ZM13.9042 8.69C13.9042 7.25 15.0382 6.116 16.8022 6.116C18.5842 6.116 19.5382 7.25 19.5382 8.69H13.9042ZM30.4923 11.678C30.4923 9.752 28.5843 9.356 26.8203 8.78C25.3803 8.312 24.7683 8.042 24.7683 7.178C24.7683 6.368 25.5603 6.08 26.5503 6.08C27.9723 6.08 28.7103 6.674 28.7103 7.88H30.1863C30.1863 6.404 29.3403 4.874 26.5503 4.874C24.4983 4.874 23.2923 5.81 23.2923 7.232C23.2923 8.852 24.6603 9.374 26.3523 9.914C27.8103 10.364 29.0163 10.562 29.0163 11.732C29.0163 12.65 28.3683 12.974 26.9823 12.974C25.2543 12.974 24.3543 12.254 24.3543 10.706H22.8783C22.8783 12.83 24.0663 14.18 26.9643 14.18C29.6463 14.18 30.4923 13.028 30.4923 11.678ZM31.9649 11.516C31.9649 12.452 32.3609 14.18 34.9529 14.18C37.1129 14.18 38.0669 12.902 38.4089 11.534H38.8409L38.6069 12.47V12.956C38.6069 13.622 38.9849 14 39.6689 14H41.2529V12.74H39.9389V8.924C39.9389 6.53 38.4449 4.874 35.9429 4.874C33.4049 4.874 32.0009 6.53 32.0009 8.384H33.4409C33.4409 6.692 34.6469 6.116 35.9429 6.116C37.4909 6.116 38.3729 6.926 38.4629 8.564L34.8989 8.906C32.8109 9.122 31.9649 10.094 31.9649 11.516ZM33.4409 11.336C33.4409 10.454 34.0169 10.112 35.1509 10.004L38.4629 9.662C38.4629 11.516 37.1669 12.92 35.1329 12.92C34.0889 12.92 33.4409 12.362 33.4409 11.336ZM51.9873 12.74V6.098C51.9873 5.27 51.6453 4.856 50.8173 4.874L45.9753 4.982V3.722C45.9753 2.552 46.3353 1.796 47.4693 1.85L51.0333 2.03V0.77L47.5413 0.589999C45.3993 0.481999 44.5353 1.832 44.5353 3.686V5.018L42.5373 5.054V6.314L44.5353 6.278V12.74H42.5373V14H54.4533V12.74H51.9873ZM50.5113 12.74H45.9753V6.242L50.5113 6.152V12.74ZM55.579 9.518C55.579 12.128 57.451 14.18 60.313 14.18C63.157 14.18 65.011 12.128 65.011 9.518C65.011 6.926 63.157 4.874 60.313 4.874C57.451 4.874 55.579 6.926 55.579 9.518ZM57.055 9.518C57.055 7.664 58.189 6.134 60.313 6.134C62.419 6.134 63.553 7.664 63.553 9.518C63.553 11.39 62.419 12.92 60.313 12.92C58.189 12.92 57.055 11.39 57.055 9.518ZM83.209 1.31H72.931V2.57H77.359V14H78.817V2.57H83.209V1.31ZM83.0808 14H84.5568V6.152L89.2908 6.314V5.054L84.3228 4.892C83.4768 4.856 83.0808 5.27 83.0808 6.116V14ZM90.7134 11.516C90.7134 12.452 91.1094 14.18 93.7014 14.18C95.8614 14.18 96.8154 12.902 97.1574 11.534H97.5894L97.3554 12.47V12.956C97.3554 13.622 97.7334 14 98.4174 14H100.001V12.74H98.6874V8.924C98.6874 6.53 97.1934 4.874 94.6914 4.874C92.1534 4.874 90.7494 6.53 90.7494 8.384H92.1894C92.1894 6.692 93.3954 6.116 94.6914 6.116C96.2394 6.116 97.1214 6.926 97.2114 8.564L93.6474 8.906C91.5594 9.122 90.7134 10.094 90.7134 11.516ZM92.1894 11.336C92.1894 10.454 92.7654 10.112 93.8994 10.004L97.2114 9.662C97.2114 11.516 95.9154 12.92 93.8814 12.92C92.8374 12.92 92.1894 12.362 92.1894 11.336ZM104.454 3.632C105.174 3.632 105.75 3.092 105.75 2.372C105.75 1.688 105.174 1.13 104.454 1.13C103.716 1.13 103.158 1.688 103.158 2.372C103.158 3.092 103.716 3.632 104.454 3.632ZM101.466 14H107.892V12.74H105.372V5.954C105.372 5.27 105.048 4.802 104.202 4.874L102.132 5.054V6.314L103.986 6.152V12.74H101.466V14ZM114.551 6.134C116.081 6.134 116.819 6.854 116.819 8.726V14H118.277V8.528C118.277 6.044 116.963 4.874 114.947 4.874C113.003 4.874 111.869 6.008 111.509 7.628H111.095L111.329 6.602V5.054H109.853V14H111.329V10.04C111.329 7.628 112.661 6.134 114.551 6.134ZM120.404 9.41C120.404 11.984 121.754 14.18 124.958 14.18C127.802 14.18 128.882 12.254 129.224 10.868H127.748C127.424 12.236 126.434 12.956 124.958 12.956C122.744 12.956 121.934 11.498 121.844 9.806H128.918V9.23C128.918 6.476 127.262 4.874 124.742 4.874C122.204 4.874 120.404 6.53 120.404 9.41ZM121.844 8.69C121.844 7.25 122.978 6.116 124.742 6.116C126.524 6.116 127.478 7.25 127.478 8.69H121.844ZM130.998 9.41C130.998 11.984 132.348 14.18 135.552 14.18C138.396 14.18 139.476 12.254 139.818 10.868H138.342C138.018 12.236 137.028 12.956 135.552 12.956C133.338 12.956 132.528 11.498 132.438 9.806H139.512V9.23C139.512 6.476 137.856 4.874 135.336 4.874C132.798 4.874 130.998 6.53 130.998 9.41ZM132.438 8.69C132.438 7.25 133.572 6.116 135.336 6.116C137.118 6.116 138.072 7.25 138.072 8.69H132.438Z" fill="#424242"/>
</svg>
