<svg width="176" height="32" viewBox="0 0 176 32" fill="none" xmlns="http://www.w3.org/2000/svg">
<path d="M0 27.1446V0.0326387H6.75344C8.11503 -0.0331777 9.46861 0.274873 10.6665 0.923177C11.6443 1.51495 12.3949 2.41606 12.7984 3.48265C13.2754 4.77859 13.5001 6.1532 13.4605 7.53295C13.4914 8.81161 13.2334 10.0808 12.7057 11.2468C12.227 12.2653 11.4458 13.1127 10.4678 13.6744C9.336 14.2712 8.06623 14.5602 6.78655 14.5121H3.79385V27.1446H0ZM3.79385 11.8141H5.5418C6.42017 11.8501 7.2977 11.7249 8.13061 11.4447C8.4305 11.3273 8.70288 11.1495 8.93072 10.9225C9.15856 10.6955 9.33697 10.4242 9.45482 10.1254C9.75837 9.29589 9.89559 8.4151 9.8587 7.53295C9.88817 6.55398 9.79925 5.57505 9.59386 4.61726C9.52044 4.30203 9.37459 4.00808 9.16778 3.75854C8.96098 3.509 8.69887 3.31069 8.40208 3.17921C7.49512 2.86235 6.53463 2.72565 5.5749 2.77681H3.79385V11.8141Z" fill="black"/>
<path d="M20.3262 27.4154C19.6183 27.4459 18.9118 27.3292 18.2517 27.0725C17.5916 26.8158 16.9925 26.4248 16.4926 25.9246C15.4903 24.8417 14.9082 23.4385 14.8506 21.9666L17.8367 21.1091C17.9299 22.0839 18.2397 23.0258 18.7437 23.8664C18.9517 24.1678 19.2338 24.4109 19.563 24.5726C19.8922 24.7343 20.2576 24.8091 20.6241 24.7899C20.8967 24.8089 21.1703 24.7692 21.4262 24.6736C21.682 24.578 21.9143 24.4287 22.1072 24.2358C22.4573 23.8197 22.637 23.2873 22.6104 22.745C22.6168 22.2205 22.4892 21.7029 22.2396 21.241C21.9247 20.7127 21.5138 20.2474 21.028 19.8689L17.7175 17.0258C17.0564 16.4543 16.485 15.7872 16.0225 15.0468C15.5367 14.2044 15.3067 13.2397 15.3604 12.2696C15.3293 11.3654 15.5443 10.4695 15.9828 9.67718C16.3878 8.97863 16.9946 8.41777 17.7241 8.06762C18.5535 7.68639 19.4594 7.49911 20.3725 7.5201C21.0378 7.47869 21.7038 7.59111 22.3182 7.84858C22.9327 8.10606 23.4791 8.50161 23.9148 9.00433C24.7466 10.0301 25.2351 11.2896 25.3118 12.6061L22.8422 13.523C22.7709 12.9254 22.6355 12.3371 22.4383 11.7683C22.2975 11.321 22.0445 10.9169 21.7033 10.5941C21.355 10.3056 20.911 10.1574 20.4586 10.1785C20.1972 10.1671 19.9366 10.2132 19.6951 10.3136C19.4536 10.4139 19.2373 10.566 19.0616 10.759C18.7187 11.1415 18.5321 11.6381 18.5385 12.1509C18.5397 12.4925 18.6142 12.8299 18.757 13.1404C18.937 13.5075 19.1945 13.8315 19.5118 14.0903L22.9415 17.2369C23.4127 17.6647 23.8551 18.1231 24.2657 18.609C24.6884 19.1143 25.0342 19.6788 25.2919 20.2845C25.5713 20.9759 25.7086 21.7161 25.6958 22.4614C25.733 23.4194 25.5039 24.369 25.0337 25.2055C24.5953 25.9317 23.9468 26.5089 23.1732 26.8613C22.2762 27.2509 21.3044 27.44 20.3262 27.4154Z" fill="black"/>
<path d="M28.086 32.0002V29.256C28.7809 29.2672 29.4758 29.2275 30.165 29.1373C30.5705 29.1038 30.9573 28.9524 31.2773 28.7019C31.3927 28.5864 31.4824 28.4481 31.5406 28.2958C31.5988 28.1435 31.6241 27.9807 31.615 27.818C31.5731 27.3723 31.4934 26.9309 31.3766 26.4987C31.2177 25.839 31.0522 25.0672 30.8734 24.2888L26.9736 7.79736H30.602L33.2504 22.2571L35.7531 7.79736H39.3814L34.7467 28.2468C34.5999 29.0801 34.2162 29.8539 33.641 30.4764C33.0645 31.0469 32.3475 31.4564 31.562 31.6638C30.5713 31.928 29.5483 32.0524 28.523 32.0332L28.086 32.0002Z" fill="black"/>
<path d="M46.8635 27.4154C45.5877 27.5021 44.3189 27.1658 43.255 26.4589C42.4016 25.7773 41.8176 24.817 41.6064 23.7477C41.3104 22.4183 41.1704 21.0591 41.1893 19.6974V15.2645C41.1642 13.8623 41.311 12.4623 41.6263 11.0955C41.8504 10.0482 42.4391 9.11352 43.2881 8.45686C44.3498 7.77581 45.6037 7.45424 46.8635 7.53994C48.0063 7.46175 49.1493 7.6895 50.174 8.1996C50.9459 8.65303 51.5162 9.38158 51.7697 10.2379C52.0868 11.3306 52.2342 12.4651 52.2066 13.6022V14.7434H48.916V13.589C48.9291 12.9251 48.8714 12.2617 48.7438 11.61C48.6761 11.1922 48.4627 10.8115 48.1413 10.5348C47.7747 10.2901 47.3368 10.1741 46.8966 10.205C46.4223 10.1787 45.9538 10.3187 45.5724 10.6008C45.2138 10.9686 44.9939 11.4487 44.95 11.9596C44.8333 12.8055 44.7779 13.6587 44.7845 14.5125V20.6078C44.7845 22.2569 44.9368 23.3585 45.2546 23.9061C45.4263 24.1886 45.6746 24.4172 45.971 24.5654C46.2673 24.7136 46.5996 24.7754 46.9297 24.7438C47.1675 24.764 47.4069 24.7371 47.6342 24.6647C47.8614 24.5922 48.0721 24.4756 48.2539 24.3216C48.5561 23.9936 48.7442 23.5772 48.7902 23.1343C48.8743 22.5576 48.9141 21.9754 48.9094 21.3928V19.8492H52.1735V21.1685C52.1964 22.3002 52.0423 23.4285 51.7167 24.5129C51.4564 25.397 50.8853 26.1581 50.1078 26.6568C49.1189 27.2072 47.9949 27.4701 46.8635 27.4154Z" fill="black"/>
<path d="M55.4644 27.1451V0.0332031H59.0596V9.80933C59.7139 9.1797 60.4485 8.63853 61.2445 8.19977C62.0689 7.75382 62.9946 7.52666 63.9326 7.54011C64.2515 7.51921 64.5713 7.5615 64.8736 7.66454C65.1759 7.76757 65.4547 7.92931 65.6938 8.1404C66.117 8.55326 66.4191 9.07324 66.5678 9.64442C66.7334 10.244 66.8181 10.863 66.8194 11.4849V27.1451H63.2242V12.5337C63.2495 11.9746 63.1382 11.4177 62.8998 10.911C62.7687 10.7091 62.5827 10.5485 62.3634 10.448C62.1442 10.3476 61.9008 10.3114 61.6616 10.3437C61.1965 10.3566 60.7417 10.4835 60.3374 10.7131C59.8617 10.9611 59.4172 11.2645 59.0132 11.6168V27.1451H55.4644Z" fill="black"/>
<path d="M75.6518 27.4152C74.4587 27.4798 73.2748 27.1757 72.2618 26.5445C71.413 25.9371 70.7929 25.0638 70.5006 24.0642C70.1283 22.8394 69.9518 21.5638 69.9776 20.2843V14.6574C69.9524 13.378 70.1289 12.1025 70.5006 10.8776C70.7947 9.88057 71.4145 9.00994 72.2618 8.40389C73.2748 7.7727 74.4587 7.46859 75.6518 7.53314C76.8409 7.46566 78.0215 7.77009 79.0285 8.40389C79.8701 9.01276 80.4849 9.88288 80.7764 10.8776C81.1482 12.1025 81.3247 13.378 81.2995 14.6574V20.2843C81.3253 21.5638 81.1488 22.8394 80.7764 24.0642C80.4867 25.0615 79.8717 25.9343 79.0285 26.5445C78.0215 27.1783 76.8409 27.4827 75.6518 27.4152ZM75.6518 24.7766C75.9272 24.8055 76.2054 24.765 76.461 24.659C76.7167 24.553 76.9415 24.3847 77.115 24.1697C77.4211 23.6935 77.5947 23.1449 77.6182 22.5799C77.6778 21.9203 77.7043 21.2606 77.7043 20.5218V14.4595C77.7043 13.7207 77.7043 13.0347 77.6182 12.3816C77.5899 11.8175 77.4166 11.2701 77.115 10.7919C76.9431 10.5747 76.7187 10.4045 76.4628 10.2972C76.2069 10.1899 75.9278 10.149 75.6518 10.1784C75.3739 10.151 75.0936 10.1928 74.836 10.2998C74.5783 10.4069 74.3513 10.5759 74.1753 10.7919C73.8637 11.2663 73.6853 11.8152 73.6588 12.3816C73.5993 13.0413 73.5728 13.7009 73.5728 14.4595V20.5152C73.5728 21.2342 73.5728 21.9203 73.6588 22.5733C73.68 23.1407 73.8588 23.691 74.1753 24.1631C74.3528 24.3769 74.5802 24.5441 74.8376 24.6499C75.0951 24.7557 75.3746 24.7969 75.6518 24.77V24.7766Z" fill="black"/>
<path d="M84.5903 27.1447V7.79697H87.9008V9.63742C88.4927 8.94805 89.2236 8.39062 90.0461 8.00147C90.8032 7.65077 91.6278 7.46845 92.4627 7.46714C93.1453 7.45665 93.8165 7.64214 94.3961 8.00147C95.039 8.45044 95.4846 9.12808 95.6408 9.89469C96.2507 9.11521 97.0263 8.47993 97.9118 8.03445C98.7131 7.64986 99.5914 7.45138 100.481 7.45395C101.083 7.44536 101.676 7.60044 102.196 7.90252C102.747 8.24563 103.181 8.74698 103.44 9.34057C103.784 10.1606 103.944 11.0452 103.91 11.933V27.1052H100.6V12.1837C100.677 11.5196 100.518 10.8496 100.15 10.2905C99.9915 10.1283 99.8004 10.0016 99.5892 9.91855C99.3781 9.83553 99.1516 9.79816 98.9249 9.80893C98.3823 9.82091 97.8508 9.96349 97.3755 10.2245C96.8192 10.5201 96.3195 10.9108 95.899 11.3789V27.1447H92.5885V12.1837C92.6635 11.5188 92.5018 10.8488 92.1317 10.2905C91.9742 10.1273 91.7833 9.99983 91.5719 9.91674C91.3605 9.83364 91.1337 9.79687 90.9068 9.80893C90.3707 9.822 89.8458 9.96462 89.3773 10.2245C88.8204 10.528 88.3153 10.9177 87.881 11.3789V27.1447H84.5903Z" fill="black"/>
<path d="M112.809 27.4153C111.568 27.4925 110.334 27.1811 109.28 26.5248C108.411 25.8743 107.8 24.9403 107.552 23.8862C107.2 22.5026 107.037 21.0781 107.068 19.6511V15.2644C107.033 13.8187 107.203 12.3753 107.572 10.9766C107.836 9.93922 108.46 9.02816 109.333 8.40398C110.376 7.76914 111.588 7.46545 112.809 7.53323C114.444 7.53323 115.649 7.86306 116.424 8.53591C117.246 9.30172 117.783 10.3226 117.947 11.4318C118.216 12.927 118.341 14.4447 118.318 15.9637V17.5402H110.657V21.419C110.64 22.0637 110.714 22.7076 110.876 23.332C110.985 23.759 111.234 24.1375 111.584 24.4073C111.954 24.6586 112.395 24.7836 112.842 24.7635C113.285 24.7942 113.723 24.655 114.067 24.3743C114.373 24.0782 114.575 23.692 114.643 23.2727C114.75 22.7163 114.801 22.1505 114.795 21.5839V20.4493H118.284V21.1882C118.383 22.8202 117.949 24.4403 117.046 25.8058C116.212 26.8788 114.8 27.4153 112.809 27.4153ZM110.657 15.6008H114.795V13.8528C114.804 13.1751 114.758 12.4978 114.656 11.8276C114.61 11.3652 114.415 10.9301 114.1 10.5874C113.731 10.2795 113.255 10.13 112.776 10.1719C112.301 10.1373 111.829 10.2782 111.452 10.5677C111.098 10.9388 110.879 11.4171 110.829 11.9266C110.698 12.7998 110.64 13.6824 110.657 14.5652V15.6008Z" fill="black"/>
<path d="M126.753 27.4155C125.903 27.4544 125.059 27.2556 124.316 26.8416C123.71 26.4665 123.245 25.9033 122.992 25.2387C122.699 24.4565 122.557 23.6261 122.575 22.7913V10.1787H120.502V7.79731H122.555V2.14404H126.15V7.79731H129.269V10.1787H126.15V22.5605C126.101 23.1258 126.228 23.6925 126.514 24.1832C126.697 24.366 126.918 24.505 127.163 24.5896C127.407 24.6742 127.668 24.7022 127.925 24.6714C128.133 24.6699 128.34 24.6567 128.547 24.6318L129.209 24.5658V27.2044C128.765 27.2704 128.348 27.3232 127.971 27.3562C127.594 27.3892 127.203 27.4155 126.753 27.4155Z" fill="black"/>
<path d="M132.03 27.145V7.79726H135.618V10.5546C136.129 9.59911 136.868 8.78354 137.77 8.17987C138.423 7.7965 139.165 7.58958 139.922 7.57958H140.174C140.279 7.57243 140.386 7.57243 140.491 7.57958V11.5375C140.194 11.4145 139.886 11.3174 139.571 11.2473C139.223 11.1737 138.868 11.1362 138.512 11.1351C137.977 11.127 137.45 11.2589 136.982 11.5177C136.41 11.8941 135.942 12.4064 135.618 13.0086V27.145H132.03Z" fill="black"/>
<path d="M142.941 4.92117V1.17432H146.537V4.92117H142.941ZM142.941 27.145V7.79728H146.537V27.145H142.941Z" fill="black"/>
<path d="M150.47 27.1119V0H154.065V16.1682L159.302 7.79716H163.07L158.501 15.3634L162.93 27.1449H159.342L155.714 17.2501L154.065 19.7304V27.1119H150.47Z" fill="black"/>
<path d="M168.306 27.4153C167.589 27.4192 166.891 27.1873 166.32 26.7556C165.721 26.3151 165.239 25.7354 164.916 25.0669C164.582 24.3968 164.41 23.6581 164.413 22.9098C164.379 21.8616 164.585 20.8194 165.016 19.8622C165.413 19.0661 165.981 18.366 166.678 17.8107C167.43 17.2129 168.256 16.712 169.134 16.3198C170.061 15.8801 171.041 15.4667 172.074 15.0797V13.6878C172.084 13.0386 172.037 12.3897 171.935 11.7484C171.887 11.3117 171.691 10.9044 171.379 10.594C171.023 10.3118 170.573 10.175 170.121 10.2114C169.698 10.1922 169.281 10.3077 168.929 10.5412C168.61 10.7801 168.377 11.1158 168.267 11.4977C168.126 11.9707 168.059 12.4624 168.068 12.9556V13.9253L164.506 13.7934C164.55 11.6517 165.042 10.0729 165.982 9.05701C166.923 8.04114 168.379 7.5332 170.352 7.5332C172.277 7.5332 173.643 8.05653 174.451 9.10319C175.258 10.152 175.656 11.6693 175.656 13.6548V22.4942C175.656 23.0945 175.656 23.675 175.709 24.2357C175.762 24.7964 175.788 25.311 175.841 25.7925C175.894 26.2741 175.947 26.7226 175.993 27.1118H172.683C172.617 26.7556 172.531 26.3005 172.431 25.7925C172.332 25.2846 172.259 24.7437 172.213 24.3017C171.961 25.1034 171.518 25.8323 170.922 26.4258C170.577 26.7606 170.167 27.0212 169.717 27.1914C169.267 27.3617 168.787 27.4379 168.306 27.4153ZM169.717 24.3347C170.077 24.3349 170.429 24.2293 170.73 24.0312C171.033 23.8455 171.313 23.624 171.564 23.3716C171.757 23.1851 171.928 22.977 172.074 22.7515V17.2368C171.511 17.5534 170.981 17.8634 170.491 18.1735C170.033 18.4657 169.601 18.7967 169.2 19.163C168.838 19.4969 168.542 19.8951 168.326 20.3372C168.107 20.801 167.999 21.3089 168.008 21.8214C167.971 22.4642 168.123 23.104 168.445 23.6618C168.578 23.8769 168.765 24.0528 168.989 24.1711C169.212 24.2894 169.464 24.3459 169.717 24.3347Z" fill="black"/>
</svg>
