<svg width="17" height="13" viewBox="0 0 17 13" fill="none" xmlns="http://www.w3.org/2000/svg">
<path fill-rule="evenodd" clip-rule="evenodd" d="M10.0545 1.0849C10.2345 0.562787 10.8037 0.285498 11.3259 0.465554C13.4978 1.21457 15.3128 2.88061 16.5501 5.03565C16.9117 5.66551 16.9979 6.40526 16.8088 7.08733C16.6612 7.61954 16.1102 7.93137 15.5779 7.78382C15.0457 7.63627 14.7339 7.08522 14.8815 6.55301C14.9296 6.37946 14.9075 6.19149 14.8157 6.03148C13.7688 4.20809 12.3013 2.91755 10.6738 2.35628C10.1517 2.17622 9.87442 1.60701 10.0545 1.0849ZM7.1422 1.16865C7.35004 1.68033 7.10373 2.26362 6.59204 2.47146C5.08763 3.08255 3.73728 4.3242 2.75704 6.03153C2.63632 6.2418 2.63632 6.5001 2.75705 6.71037C4.19618 9.21694 6.41197 10.7043 8.78634 10.7043C10.4741 10.7043 12.0673 9.95953 13.3718 8.63233C13.759 8.23845 14.3921 8.23299 14.786 8.62013C15.1799 9.00727 15.1853 9.64041 14.7982 10.0343C13.1828 11.6778 11.0968 12.7043 8.78634 12.7043C5.51273 12.7043 2.71679 10.657 1.02259 7.70619C0.547811 6.87925 0.547808 5.86266 1.02258 5.03572C2.18212 3.0161 3.84757 1.42755 5.83938 0.618494C6.35107 0.410652 6.93436 0.656964 7.1422 1.16865Z" fill="#8C939D"/>
<path d="M10.7263 5.88358C10.8322 6.3048 10.798 6.74903 10.6291 7.14914C10.4601 7.54925 10.1655 7.88348 9.78977 8.10132C9.41404 8.31916 8.9776 8.40878 8.54643 8.35662C8.11525 8.30446 7.71277 8.11336 7.39982 7.8122C7.08687 7.51105 6.88046 7.1162 6.81178 6.68735C6.74311 6.2585 6.8159 5.81894 7.01915 5.43512C7.22241 5.0513 7.54508 4.74407 7.9384 4.55987C8.33173 4.37567 8.77432 4.32452 9.19929 4.41413" stroke="#8C939D" stroke-width="2"/>
</svg>
